<svg width="14" height="16" viewBox="0 0 14 16" fill="none" xmlns="http://www.w3.org/2000/svg">
<path d="M13.7652 2.15003C13.8949 2.15003 14 2.04512 14 1.91565V0.693374C14 0.311062 13.6884 0 13.3054 0H4.03256C3.64956 0 3.338 0.311062 3.338 0.693374V1.60656H2.34662C1.96362 1.60656 1.65206 1.91762 1.65206 2.3V3.21318H0.698931C0.315934 3.21318 0.00433968 3.52425 0.00433968 3.90656C0.00433968 12.5637 -0.0258681 12.2071 0.0731132 12.306C3.9301 16.1564 3.73229 15.9991 3.86984 15.9991H5.22919C5.35885 15.9991 5.46397 15.8942 5.46397 15.7647C5.46397 15.6353 5.35885 15.5304 5.22919 15.5304H4.10462V12.5993C4.10462 12.217 3.79302 11.9059 3.41006 11.9059H0.473891V3.90659C0.473891 3.78271 0.574844 3.68196 0.698931 3.68196C1.11398 3.68196 9.63111 3.68196 9.97175 3.68196C10.0958 3.68196 10.1968 3.78275 10.1968 3.90659C10.1968 3.96403 10.1968 14.8992 10.1968 15.3057C10.1968 15.4296 10.0958 15.5304 9.97175 15.5304H6.06396C5.9343 15.5304 5.82918 15.6353 5.82918 15.7647C5.82918 15.8942 5.9343 15.9991 6.06396 15.9991H9.97175C10.3547 15.9991 10.6663 15.688 10.6663 15.3057V14.3925H11.6194C12.0024 14.3925 12.314 14.0815 12.314 13.6991V12.7859H13.3054C13.6883 12.7859 14 12.4749 14 12.0925V2.728C14 2.59853 13.8949 2.49362 13.7652 2.49362C13.6355 2.49362 13.5304 2.59853 13.5304 2.728V12.0925C13.5304 12.2164 13.4295 12.3172 13.3054 12.3172H12.314V2.3C12.314 1.91765 12.0024 1.60656 11.6194 1.60656H3.80755V0.693374C3.80755 0.569499 3.9085 0.468749 4.03256 0.468749H13.3054C13.4295 0.468749 13.5304 0.56953 13.5304 0.693374V1.91562C13.5304 2.04509 13.6355 2.15003 13.7652 2.15003ZM3.41002 12.3746C3.53411 12.3746 3.63503 12.4754 3.63503 12.5993V15.1989C3.55343 15.1174 1.14795 12.7161 0.805926 12.3746H3.41002ZM11.6194 2.07531C11.7435 2.07531 11.8445 2.17612 11.8445 2.29997C11.8445 2.3574 11.8445 13.2926 11.8445 13.6991C11.8445 13.823 11.7435 13.9237 11.6194 13.9237H10.6664V3.90656C10.6664 3.52425 10.3548 3.21318 9.97178 3.21318H2.12158V2.3C2.12158 2.17612 2.22253 2.07534 2.34659 2.07534C2.66297 2.07531 11.3024 2.07531 11.6194 2.07531Z" fill="#2F6C8F"/>
</svg>
